# xmcd CD database file
#
# Track frame offsets:
#	150
#	12754
#	43036
#	79495
#	114222
#	135219
#	160096
#	209327
#	220532
#	252889
#
# Disc length: 3566 seconds
#
# Revision: 0
# Processed by: cddbd v1.5.1PL0 Copyright (c) Steve Scherf et al.
# Submitted via: CDex 1.51
#
DISCID=770dec0a
DTITLE=Alchemik Studio - Antology
DYEAR=1900
DGENRE=Jazz
TTITLE0=Chrleston Charligo St¹d ::: Dracula in Bucharest
TTITLE1=Ostatnie Tango w Bangladeszu :::Sfera szeptów
TTITLE2=Sfera szeptów ::: Sfera szeptów
TTITLE3=Kochanek ::: Sfera szeptów
TTITLE4=Chik chika ::: Sin
TTITLE5=Sin ::: Sin
TTITLE6=Nexo ::: Oxen
TTITLE7=Ox in Hell ::: Oxen
TTITLE8=Chodzi Lisek Ko³o Drogi ::: Acoustic Jazz Sextet
TTITLE9=Jeziora ::: Acoustic Jazz Sextet
EXTD=
EXTT0=
EXTT1=
EXTT2=
EXTT3=
EXTT4=
EXTT5=
EXTT6=
EXTT7=
EXTT8=
EXTT9=
PLAYORDER=
